<svg width="130" height="130" viewBox="0 0 130 130" fill="none" xmlns="http://www.w3.org/2000/svg">
<g id="Figma Logo">
<g id="Figma">
<path id="Rectangle 55" d="M94.9521 33.3342C94.9521 41.7023 88.1684 48.4861 79.8002 48.4861L64.6483 48.4861V18.1822H79.8002C88.1684 18.1822 94.9521 24.966 94.9521 33.3342V33.3342Z" stroke="black" stroke-width="6.06077"/>
<path id="Rectangle 55_2" d="M34.3447 33.3342C34.3447 41.7023 41.1285 48.4861 49.4966 48.4861L64.6486 48.4861V18.1822H49.4966C41.1285 18.1822 34.3447 24.966 34.3447 33.3342V33.3342Z" stroke="black" stroke-width="6.06077"/>
<path id="Rectangle 55_3" d="M34.3447 63.6379C34.3447 72.0061 41.1285 78.7898 49.4966 78.7898H64.6486V48.486H49.4966C41.1285 48.486 34.3447 55.2697 34.3447 63.6379V63.6379Z" stroke="black" stroke-width="6.06077"/>
<path id="Rectangle 55_4" d="M34.3447 93.9418C34.3447 102.31 41.1285 109.094 49.4966 109.094V109.094C57.8648 109.094 64.6486 102.31 64.6486 93.9418V78.7899H49.4966C41.1285 78.7899 34.3447 85.5737 34.3447 93.9418V93.9418Z" stroke="black" stroke-width="6.06077"/>
<path id="Rectangle 55_5" d="M64.6484 63.6379C64.6484 72.0061 71.4322 78.7898 79.8004 78.7898V78.7898C88.1685 78.7898 94.9523 72.0061 94.9523 63.6379V63.6379C94.9523 55.2697 88.1685 48.486 79.8004 48.486V48.486C71.4322 48.486 64.6484 55.2697 64.6484 63.6379V63.6379Z" stroke="black" stroke-width="6.06077"/>
</g>
</g>
</svg>
